<?xml version="1.0" encoding="UTF-8" standalone="no"?>
<!DOCTYPE svg PUBLIC "-//W3C//DTD SVG 1.1//EN" "http://www.w3.org/Graphics/SVG/1.1/DTD/svg11.dtd">
<svg width="100%" height="100%" viewBox="0 0 1517 248" version="1.1" xmlns="http://www.w3.org/2000/svg" xmlns:xlink="http://www.w3.org/1999/xlink" xml:space="preserve" xmlns:serif="http://www.serif.com/" style="fill-rule:evenodd;clip-rule:evenodd;stroke-linejoin:round;stroke-miterlimit:2;">
    <g transform="matrix(2.66667,0,0,2.66667,-41.9467,-676)">
        <g transform="matrix(0.644612,0,0,0.644612,-17.1234,166.009)">
            <g transform="matrix(192.364,0,0,192.364,35,280)">
                <path d="M0.583,-0.167C0.576,-0.056 0.521,0 0.417,0L0.25,0C0.205,0 0.166,-0.016 0.133,-0.049C0.099,-0.082 0.083,-0.121 0.083,-0.167L0.083,-0.583C0.083,-0.628 0.099,-0.668 0.132,-0.701C0.164,-0.733 0.203,-0.75 0.25,-0.75L0.417,-0.75C0.522,-0.75 0.577,-0.694 0.583,-0.583L0.5,-0.583C0.493,-0.639 0.466,-0.667 0.417,-0.667L0.333,-0.667C0.31,-0.667 0.291,-0.659 0.275,-0.643C0.258,-0.626 0.25,-0.606 0.25,-0.583L0.25,-0.167C0.25,-0.144 0.258,-0.125 0.275,-0.108C0.291,-0.091 0.31,-0.083 0.333,-0.083L0.417,-0.083C0.466,-0.083 0.494,-0.111 0.5,-0.167L0.583,-0.167Z" style="fill:white;fill-rule:nonzero;"/>
            </g>
            <g transform="matrix(192.364,0,0,192.364,163.307,280)">
                <path d="M0.083,0L0.083,-0.75L0.417,-0.75C0.462,-0.75 0.501,-0.733 0.534,-0.701C0.567,-0.668 0.583,-0.628 0.583,-0.583L0.583,-0.542C0.583,-0.493 0.569,-0.454 0.542,-0.427C0.514,-0.399 0.472,-0.382 0.417,-0.375C0.472,-0.375 0.514,-0.358 0.542,-0.325C0.569,-0.291 0.583,-0.252 0.583,-0.208L0.583,-0.167C0.583,-0.122 0.567,-0.083 0.534,-0.05C0.501,-0.017 0.462,0 0.417,0L0.083,0ZM0.25,-0.417L0.333,-0.417C0.356,-0.417 0.376,-0.425 0.393,-0.442C0.409,-0.458 0.417,-0.477 0.417,-0.5L0.417,-0.583C0.417,-0.606 0.409,-0.626 0.393,-0.643C0.376,-0.659 0.356,-0.667 0.333,-0.667L0.25,-0.667L0.25,-0.417ZM0.25,-0.083L0.333,-0.083C0.356,-0.083 0.376,-0.091 0.393,-0.108C0.409,-0.125 0.417,-0.144 0.417,-0.167L0.417,-0.25C0.417,-0.305 0.389,-0.333 0.333,-0.333L0.25,-0.333L0.25,-0.083Z" style="fill:white;fill-rule:nonzero;"/>
            </g>
            <g transform="matrix(192.364,0,0,192.364,339.704,280)">
                <path d="M0.5,-0.583L0.417,-0.583C0.41,-0.639 0.383,-0.667 0.338,-0.667C0.309,-0.667 0.287,-0.66 0.272,-0.646C0.257,-0.632 0.25,-0.611 0.25,-0.583C0.25,-0.562 0.258,-0.543 0.274,-0.524L0.451,-0.326C0.484,-0.289 0.5,-0.25 0.5,-0.208L0.5,-0.167C0.5,-0.122 0.484,-0.083 0.451,-0.05C0.418,-0.017 0.379,0 0.333,0L0.25,0C0.195,0 0.153,-0.014 0.125,-0.042C0.097,-0.069 0.083,-0.111 0.083,-0.167L0.167,-0.167L0.167,-0.153C0.167,-0.13 0.176,-0.113 0.193,-0.101C0.21,-0.089 0.229,-0.083 0.25,-0.083C0.279,-0.083 0.301,-0.09 0.314,-0.105C0.327,-0.119 0.333,-0.14 0.333,-0.167C0.333,-0.188 0.325,-0.208 0.309,-0.226L0.132,-0.424C0.099,-0.46 0.083,-0.499 0.083,-0.542L0.083,-0.583C0.083,-0.628 0.099,-0.668 0.132,-0.701C0.165,-0.733 0.204,-0.75 0.25,-0.75L0.333,-0.75C0.438,-0.75 0.493,-0.694 0.5,-0.583Z" style="fill:white;fill-rule:nonzero;"/>
            </g>
            <g transform="matrix(192.364,0,0,192.364,451.852,280)">
                <path d="M0.083,0L0.083,-0.75L0.417,-0.75C0.462,-0.75 0.501,-0.733 0.534,-0.701C0.567,-0.668 0.583,-0.628 0.583,-0.583L0.583,-0.5C0.583,-0.455 0.567,-0.416 0.534,-0.383C0.501,-0.349 0.462,-0.333 0.417,-0.333L0.25,-0.333L0.25,0L0.083,0ZM0.25,-0.417L0.333,-0.417C0.356,-0.417 0.376,-0.425 0.393,-0.442C0.409,-0.458 0.417,-0.477 0.417,-0.5L0.417,-0.583C0.417,-0.606 0.409,-0.626 0.393,-0.643C0.376,-0.659 0.356,-0.667 0.333,-0.667L0.25,-0.667L0.25,-0.417Z" style="fill:white;fill-rule:nonzero;"/>
            </g>
            <g transform="matrix(192.364,0,0,192.364,580.159,280)">
                <path d="M0.083,0L0.083,-0.583C0.083,-0.629 0.099,-0.668 0.133,-0.701C0.166,-0.734 0.205,-0.75 0.25,-0.75L0.417,-0.75C0.462,-0.75 0.501,-0.733 0.534,-0.701C0.567,-0.668 0.583,-0.628 0.583,-0.583L0.583,0L0.417,0L0.417,-0.333L0.25,-0.333L0.25,0L0.083,0ZM0.25,-0.417L0.417,-0.417L0.417,-0.583C0.417,-0.606 0.409,-0.626 0.393,-0.643C0.376,-0.659 0.356,-0.667 0.333,-0.667C0.31,-0.667 0.291,-0.659 0.275,-0.643C0.258,-0.626 0.25,-0.606 0.25,-0.583L0.25,-0.417Z" style="fill:white;fill-rule:nonzero;"/>
            </g>
            <g transform="matrix(192.364,0,0,192.364,708.465,280)">
                <path d="M0.583,-0.167C0.576,-0.056 0.521,0 0.417,0L0.25,0C0.205,0 0.166,-0.016 0.133,-0.049C0.099,-0.082 0.083,-0.121 0.083,-0.167L0.083,-0.583C0.083,-0.628 0.099,-0.668 0.132,-0.701C0.164,-0.733 0.203,-0.75 0.25,-0.75L0.417,-0.75C0.522,-0.75 0.577,-0.694 0.583,-0.583L0.5,-0.583C0.493,-0.639 0.466,-0.667 0.417,-0.667L0.333,-0.667C0.31,-0.667 0.291,-0.659 0.275,-0.643C0.258,-0.626 0.25,-0.606 0.25,-0.583L0.25,-0.167C0.25,-0.144 0.258,-0.125 0.275,-0.108C0.291,-0.091 0.31,-0.083 0.333,-0.083L0.417,-0.083C0.466,-0.083 0.494,-0.111 0.5,-0.167L0.583,-0.167Z" style="fill:white;fill-rule:nonzero;"/>
            </g>
            <g transform="matrix(192.364,0,0,192.364,836.772,280)">
                <path d="M0.083,0L0.083,-0.75L0.5,-0.75L0.5,-0.667L0.25,-0.667L0.25,-0.417L0.417,-0.417L0.417,-0.333L0.25,-0.333L0.25,-0.083L0.5,-0.083L0.5,0L0.083,0Z" style="fill:white;fill-rule:nonzero;"/>
            </g>
        </g>
    </g>
</svg>
