<?xml version="1.0" encoding="UTF-8" standalone="no"?>
<!DOCTYPE svg PUBLIC "-//W3C//DTD SVG 1.1//EN" "http://www.w3.org/Graphics/SVG/1.1/DTD/svg11.dtd">
<svg width="100%" height="100%" viewBox="0 0 478 207" version="1.1" xmlns="http://www.w3.org/2000/svg" xmlns:xlink="http://www.w3.org/1999/xlink" xml:space="preserve" xmlns:serif="http://www.serif.com/" style="fill-rule:evenodd;clip-rule:evenodd;stroke-linejoin:round;stroke-miterlimit:2;">
    <g transform="matrix(1,0,0,1,-61.0669,-166.494)">
        <g id="hd-logo" transform="matrix(0.496855,0.00171377,-0.00171377,0.496855,321.059,210.179)">
            <g transform="matrix(1,0,0,1,-122.5,-87.5)">
                <g transform="matrix(2.4676e-16,-3.70662,-3.86826,-2.17067e-16,345.087,819.778)">
                    <g>
                        <g>
                            <g id="XMLID_30_" transform="matrix(1,0,0,1,8.57123,7.10543e-15)">
                                <path d="M179.56,54.11C181.51,54.11 183.1,55.69 183.1,57.65C183.1,59.6 181.52,61.19 179.56,61.19C177.6,61.19 176.02,59.6 176.02,57.65C176.03,55.7 177.61,54.11 179.56,54.11Z" style="fill:white;fill-rule:nonzero;stroke:white;stroke-width:0.26px;"/>
                            </g>
                            <g id="XMLID_176_" transform="matrix(1,0,0,0.929558,-1.29877,3.80122)">
                                <path d="M199.938,57.813C199.938,63.043 196.4,67.62 192.97,71.05L194.32,72.4C198.1,68.62 202.059,63.563 202.059,57.813C202.059,52.063 198.1,46.68 194.32,42.9L192.97,44.25C196.4,47.68 199.938,52.583 199.938,57.813Z" style="fill:white;fill-rule:nonzero;stroke:white;stroke-width:0.82px;"/>
                            </g>
                            <path id="XMLID_183_" d="M205.298,57.65C205.298,64.15 200.5,70.04 196.23,74.31L198.02,76.11C202.75,71.38 208.108,64.85 208.108,57.65C208.108,50.45 202.75,43.92 198.02,39.19L196.23,40.99C200.5,45.26 205.298,51.15 205.298,57.65Z" style="fill:white;fill-rule:nonzero;stroke:white;stroke-width:0.79px;"/>
                        </g>
                    </g>
                </g>
            </g>
        </g>
        <g transform="matrix(0.644612,0,0,0.644612,29.9771,101.931)">
            <text x="35px" y="280px" style="font-family:'aspace-Italic', 'a•space';font-style:italic;font-size:127.208px;fill:white;">CB Digital</text>
        </g>
        <g transform="matrix(1,0,0,1,-52.7933,-39.9879)">
            <text x="181.666px" y="396.643px" style="font-family:'aspace-Italic', 'a•space';font-style:italic;font-size:82px;fill:white;">Group</text>
        </g>
    </g>
</svg>
