<?xml version="1.0" encoding="UTF-8" standalone="no"?>
<!DOCTYPE svg PUBLIC "-//W3C//DTD SVG 1.1//EN" "http://www.w3.org/Graphics/SVG/1.1/DTD/svg11.dtd">
<svg width="100%" height="100%" viewBox="0 0 326 74" version="1.1" xmlns="http://www.w3.org/2000/svg" xmlns:xlink="http://www.w3.org/1999/xlink" xml:space="preserve" xmlns:serif="http://www.serif.com/" style="fill-rule:evenodd;clip-rule:evenodd;stroke-linejoin:round;stroke-miterlimit:2;">
    <g transform="matrix(1,0,0,1,-137.401,-105)">
        <g transform="matrix(1,0,0,1,-52.7933,-234.988)">
            <g transform="matrix(82,0,0,82,181.666,396.643)">
                <path d="M0.496,-0.396L0.931,-0.396L0.893,-0.215C0.88,-0.156 0.848,-0.105 0.797,-0.063C0.747,-0.021 0.691,0 0.632,0L0.279,0C0.22,0 0.173,-0.021 0.14,-0.063C0.116,-0.093 0.104,-0.128 0.104,-0.167C0.104,-0.183 0.106,-0.199 0.109,-0.215L0.165,-0.476C0.177,-0.535 0.209,-0.586 0.26,-0.628C0.311,-0.67 0.367,-0.691 0.426,-0.691L0.903,-0.691L0.886,-0.614L0.409,-0.614C0.371,-0.614 0.336,-0.6 0.304,-0.573C0.271,-0.546 0.25,-0.514 0.242,-0.476L0.187,-0.215C0.185,-0.204 0.184,-0.194 0.184,-0.185C0.184,-0.16 0.191,-0.137 0.207,-0.118C0.228,-0.091 0.258,-0.077 0.295,-0.077L0.648,-0.077C0.687,-0.077 0.722,-0.091 0.754,-0.118C0.787,-0.145 0.807,-0.177 0.815,-0.215L0.837,-0.318L0.48,-0.318L0.496,-0.396Z" style="fill:white;fill-rule:nonzero;"/>
            </g>
            <g transform="matrix(82,0,0,82,256.339,396.643)">
                <path d="M0.13,-0.313C0.14,-0.358 0.164,-0.396 0.202,-0.428C0.241,-0.46 0.283,-0.476 0.328,-0.476L0.747,-0.476L0.73,-0.398L0.311,-0.398C0.288,-0.398 0.266,-0.39 0.246,-0.374C0.225,-0.357 0.213,-0.337 0.208,-0.313L0.141,0L0.063,0L0.13,-0.313Z" style="fill:white;fill-rule:nonzero;"/>
            </g>
            <g transform="matrix(82,0,0,82,309.711,396.643)">
                <path d="M0.708,-0.476C0.753,-0.476 0.788,-0.46 0.813,-0.428C0.832,-0.405 0.841,-0.379 0.841,-0.349C0.841,-0.337 0.84,-0.325 0.837,-0.313L0.805,-0.163C0.796,-0.118 0.772,-0.08 0.733,-0.048C0.694,-0.016 0.652,0 0.607,0L0.227,0C0.182,0 0.147,-0.016 0.122,-0.048C0.103,-0.071 0.094,-0.098 0.094,-0.128C0.094,-0.139 0.096,-0.151 0.098,-0.163L0.13,-0.313C0.14,-0.358 0.164,-0.396 0.202,-0.428C0.241,-0.46 0.283,-0.476 0.328,-0.476L0.708,-0.476ZM0.759,-0.313C0.761,-0.32 0.762,-0.326 0.762,-0.333C0.762,-0.348 0.757,-0.362 0.748,-0.374C0.734,-0.39 0.715,-0.398 0.692,-0.398L0.311,-0.398C0.287,-0.398 0.265,-0.39 0.246,-0.374C0.225,-0.357 0.212,-0.337 0.207,-0.313L0.175,-0.163C0.174,-0.157 0.173,-0.15 0.173,-0.144C0.173,-0.128 0.178,-0.115 0.188,-0.103C0.201,-0.086 0.219,-0.077 0.243,-0.077L0.624,-0.077C0.647,-0.077 0.669,-0.086 0.69,-0.103C0.71,-0.119 0.722,-0.139 0.728,-0.163L0.759,-0.313Z" style="fill:white;fill-rule:nonzero;"/>
            </g>
            <g transform="matrix(82,0,0,82,378.098,396.643)">
                <path d="M0.794,-0.476L0.872,-0.476L0.805,-0.163C0.796,-0.118 0.772,-0.08 0.733,-0.048C0.694,-0.016 0.652,0 0.607,0L0.227,0C0.182,0 0.147,-0.016 0.122,-0.048C0.103,-0.071 0.094,-0.098 0.094,-0.128C0.094,-0.139 0.096,-0.151 0.098,-0.163L0.165,-0.476L0.242,-0.476L0.176,-0.163C0.174,-0.157 0.174,-0.15 0.174,-0.144C0.174,-0.128 0.179,-0.115 0.188,-0.103C0.201,-0.086 0.22,-0.077 0.243,-0.077L0.624,-0.077C0.648,-0.077 0.67,-0.086 0.69,-0.103C0.71,-0.119 0.723,-0.139 0.728,-0.163L0.794,-0.476Z" style="fill:white;fill-rule:nonzero;"/>
            </g>
            <g transform="matrix(82,0,0,82,446.485,396.643)">
                <path d="M0.707,-0.476C0.752,-0.476 0.788,-0.459 0.813,-0.427C0.831,-0.404 0.84,-0.377 0.84,-0.347C0.84,-0.336 0.839,-0.324 0.836,-0.311L0.805,-0.164C0.796,-0.118 0.771,-0.08 0.732,-0.048C0.693,-0.016 0.651,0 0.606,0L0.26,0C0.215,0 0.179,-0.013 0.149,-0.04L0.098,0.205L0.02,0.205L0.123,-0.28C0.134,-0.334 0.163,-0.38 0.21,-0.418C0.257,-0.456 0.307,-0.476 0.361,-0.476L0.707,-0.476ZM0.759,-0.311C0.76,-0.318 0.761,-0.324 0.761,-0.331C0.761,-0.347 0.756,-0.361 0.747,-0.373C0.733,-0.389 0.715,-0.398 0.69,-0.398L0.344,-0.398C0.311,-0.398 0.281,-0.386 0.253,-0.363C0.225,-0.34 0.208,-0.312 0.201,-0.28L0.183,-0.195C0.181,-0.187 0.18,-0.178 0.18,-0.17C0.18,-0.148 0.186,-0.129 0.2,-0.112C0.218,-0.088 0.243,-0.077 0.276,-0.077L0.622,-0.077C0.646,-0.077 0.669,-0.085 0.689,-0.103C0.71,-0.119 0.723,-0.14 0.728,-0.164L0.759,-0.311Z" style="fill:white;fill-rule:nonzero;"/>
            </g>
        </g>
    </g>
</svg>
