<?xml version="1.0" encoding="UTF-8" standalone="no"?>
<!DOCTYPE svg PUBLIC "-//W3C//DTD SVG 1.1//EN" "http://www.w3.org/Graphics/SVG/1.1/DTD/svg11.dtd">
<svg width="100%" height="100%" viewBox="0 0 600 600" version="1.1" xmlns="http://www.w3.org/2000/svg" xmlns:xlink="http://www.w3.org/1999/xlink" xml:space="preserve" xmlns:serif="http://www.serif.com/" style="fill-rule:evenodd;clip-rule:evenodd;stroke-linejoin:round;stroke-miterlimit:2;">
    <g id="hd-logo" transform="matrix(0.496855,0.00171377,-0.00171377,0.496855,321.059,210.179)">
        <g transform="matrix(1,0,0,1,-122.5,-87.5)">
            <g transform="matrix(2.4676e-16,-3.70662,-3.86826,-2.17067e-16,345.087,819.778)">
                <g>
                    <g>
                        <g id="XMLID_30_" transform="matrix(1,0,0,1,8.57123,7.10543e-15)">
                            <path d="M179.56,54.11C181.51,54.11 183.1,55.69 183.1,57.65C183.1,59.6 181.52,61.19 179.56,61.19C177.6,61.19 176.02,59.6 176.02,57.65C176.03,55.7 177.61,54.11 179.56,54.11Z" style="fill:white;fill-rule:nonzero;stroke:white;stroke-width:0.26px;"/>
                        </g>
                        <g id="XMLID_176_" transform="matrix(1,0,0,0.929558,-1.29877,3.80122)">
                            <path d="M199.938,57.813C199.938,63.043 196.4,67.62 192.97,71.05L194.32,72.4C198.1,68.62 202.059,63.563 202.059,57.813C202.059,52.063 198.1,46.68 194.32,42.9L192.97,44.25C196.4,47.68 199.938,52.583 199.938,57.813Z" style="fill:white;fill-rule:nonzero;stroke:white;stroke-width:0.82px;"/>
                        </g>
                        <path id="XMLID_183_" d="M205.298,57.65C205.298,64.15 200.5,70.04 196.23,74.31L198.02,76.11C202.75,71.38 208.108,64.85 208.108,57.65C208.108,50.45 202.75,43.92 198.02,39.19L196.23,40.99C200.5,45.26 205.298,51.15 205.298,57.65Z" style="fill:white;fill-rule:nonzero;stroke:white;stroke-width:0.79px;"/>
                    </g>
                </g>
            </g>
        </g>
    </g>
    <g transform="matrix(0.644612,0,0,0.644612,29.9771,101.931)">
        <g transform="matrix(127.208,0,0,127.208,35,280)">
            <path d="M0.165,-0.476C0.177,-0.535 0.209,-0.586 0.26,-0.628C0.311,-0.67 0.367,-0.691 0.426,-0.691L0.994,-0.691L0.978,-0.614L0.409,-0.614C0.371,-0.614 0.336,-0.6 0.304,-0.573C0.271,-0.546 0.25,-0.514 0.242,-0.476L0.187,-0.215C0.185,-0.204 0.184,-0.194 0.184,-0.185C0.184,-0.16 0.191,-0.137 0.207,-0.118C0.228,-0.091 0.257,-0.077 0.295,-0.077L0.864,-0.077L0.847,0L0.279,0C0.22,0 0.173,-0.021 0.14,-0.063C0.116,-0.093 0.104,-0.128 0.104,-0.167C0.104,-0.182 0.106,-0.198 0.109,-0.215L0.165,-0.476Z" style="fill:white;fill-rule:nonzero;"/>
        </g>
        <g transform="matrix(127.208,0,0,127.208,150.842,280)">
            <path d="M0.814,-0.355C0.846,-0.325 0.862,-0.288 0.862,-0.244C0.862,-0.23 0.861,-0.215 0.857,-0.2L0.856,-0.196C0.845,-0.142 0.816,-0.096 0.77,-0.057C0.723,-0.019 0.673,0 0.619,0L0.063,0L0.184,-0.565C0.191,-0.6 0.21,-0.63 0.24,-0.654C0.269,-0.679 0.301,-0.691 0.336,-0.691L0.766,-0.691C0.826,-0.691 0.869,-0.671 0.897,-0.632C0.915,-0.608 0.924,-0.579 0.924,-0.546C0.924,-0.533 0.922,-0.519 0.919,-0.504C0.906,-0.441 0.871,-0.391 0.814,-0.355ZM0.225,-0.396L0.703,-0.396C0.74,-0.396 0.772,-0.407 0.798,-0.43C0.821,-0.45 0.835,-0.475 0.842,-0.504C0.844,-0.514 0.845,-0.522 0.845,-0.53C0.845,-0.549 0.84,-0.565 0.83,-0.579C0.813,-0.602 0.786,-0.614 0.749,-0.614L0.319,-0.614C0.306,-0.614 0.294,-0.609 0.283,-0.6C0.271,-0.59 0.264,-0.579 0.261,-0.565L0.225,-0.396ZM0.78,-0.2C0.782,-0.208 0.783,-0.217 0.783,-0.225C0.783,-0.247 0.776,-0.267 0.763,-0.284C0.744,-0.307 0.719,-0.318 0.687,-0.318L0.209,-0.318L0.158,-0.077L0.635,-0.077C0.668,-0.077 0.698,-0.089 0.727,-0.112C0.755,-0.135 0.772,-0.163 0.779,-0.196L0.78,-0.2Z" style="fill:white;fill-rule:nonzero;"/>
        </g>
        <g transform="matrix(127.208,0,0,127.208,306.063,280)">
            <path d="M0.779,-0.691C0.838,-0.691 0.884,-0.67 0.917,-0.628C0.942,-0.598 0.954,-0.563 0.954,-0.523C0.954,-0.508 0.952,-0.492 0.948,-0.476L0.893,-0.215C0.88,-0.156 0.848,-0.105 0.797,-0.063C0.746,-0.021 0.691,0 0.632,0L0.063,0L0.184,-0.565C0.191,-0.6 0.21,-0.63 0.239,-0.654C0.269,-0.679 0.301,-0.691 0.336,-0.691L0.779,-0.691ZM0.871,-0.476C0.873,-0.486 0.874,-0.496 0.874,-0.506C0.874,-0.531 0.866,-0.554 0.851,-0.573C0.83,-0.6 0.8,-0.614 0.762,-0.614L0.319,-0.614C0.306,-0.614 0.294,-0.609 0.283,-0.6C0.271,-0.59 0.264,-0.579 0.261,-0.565L0.158,-0.077L0.648,-0.077C0.687,-0.077 0.722,-0.091 0.754,-0.118C0.787,-0.145 0.807,-0.177 0.815,-0.215L0.871,-0.476Z" style="fill:white;fill-rule:nonzero;"/>
        </g>
        <g transform="matrix(127.208,0,0,127.208,421.904,280)">
            <path d="M0.169,-0.476L0.247,-0.476L0.146,0L0.068,0L0.169,-0.476ZM0.215,-0.691L0.293,-0.691L0.277,-0.613L0.199,-0.613L0.215,-0.691Z" style="fill:white;fill-rule:nonzero;"/>
        </g>
        <g transform="matrix(127.208,0,0,127.208,449.234,280)">
            <path d="M0.675,-0.477C0.729,-0.477 0.771,-0.457 0.802,-0.419C0.824,-0.391 0.835,-0.36 0.835,-0.324C0.835,-0.31 0.833,-0.296 0.83,-0.281L0.76,0.05C0.75,0.095 0.726,0.134 0.687,0.167C0.648,0.198 0.606,0.214 0.561,0.214L0.057,0.214L0.073,0.137L0.577,0.137C0.6,0.137 0.623,0.129 0.644,0.111C0.665,0.094 0.677,0.074 0.682,0.05L0.702,-0.041C0.661,-0.014 0.618,0 0.574,0L0.228,0C0.183,0 0.147,-0.017 0.122,-0.049C0.104,-0.072 0.095,-0.098 0.095,-0.128C0.095,-0.14 0.096,-0.152 0.099,-0.165L0.13,-0.312C0.139,-0.357 0.164,-0.396 0.203,-0.428C0.242,-0.46 0.284,-0.477 0.329,-0.477L0.675,-0.477ZM0.591,-0.078C0.624,-0.078 0.654,-0.089 0.682,-0.113C0.71,-0.136 0.728,-0.164 0.734,-0.196L0.752,-0.281C0.754,-0.29 0.755,-0.299 0.755,-0.307C0.755,-0.328 0.749,-0.348 0.736,-0.364C0.718,-0.387 0.692,-0.399 0.659,-0.399L0.313,-0.399C0.289,-0.399 0.267,-0.39 0.246,-0.374C0.225,-0.357 0.212,-0.336 0.207,-0.312L0.176,-0.165C0.174,-0.159 0.174,-0.152 0.174,-0.146C0.174,-0.13 0.179,-0.116 0.188,-0.104C0.202,-0.086 0.221,-0.078 0.245,-0.078L0.591,-0.078Z" style="fill:white;fill-rule:nonzero;"/>
        </g>
        <g transform="matrix(127.208,0,0,127.208,555.324,280)">
            <path d="M0.169,-0.476L0.247,-0.476L0.146,0L0.068,0L0.169,-0.476ZM0.215,-0.691L0.293,-0.691L0.277,-0.613L0.199,-0.613L0.215,-0.691Z" style="fill:white;fill-rule:nonzero;"/>
        </g>
        <g transform="matrix(127.208,0,0,127.208,582.654,280)">
            <path d="M0.326,-0.476L0.495,-0.476L0.478,-0.398L0.31,-0.398L0.26,-0.165C0.259,-0.158 0.258,-0.151 0.258,-0.145C0.258,-0.129 0.263,-0.115 0.272,-0.103C0.286,-0.086 0.305,-0.077 0.329,-0.077L0.41,-0.077L0.394,0L0.312,0C0.267,0 0.231,-0.016 0.206,-0.048C0.188,-0.071 0.179,-0.098 0.179,-0.128C0.179,-0.14 0.18,-0.152 0.183,-0.165L0.232,-0.398L0.148,-0.398L0.165,-0.476L0.249,-0.476L0.294,-0.691L0.372,-0.691L0.326,-0.476Z" style="fill:white;fill-rule:nonzero;"/>
        </g>
        <g transform="matrix(127.208,0,0,127.208,640.792,280)">
            <path d="M0.614,-0.077C0.672,-0.077 0.707,-0.101 0.718,-0.148C0.72,-0.154 0.72,-0.159 0.72,-0.164C0.72,-0.181 0.713,-0.194 0.697,-0.202C0.685,-0.208 0.668,-0.212 0.646,-0.212L0.269,-0.212C0.248,-0.212 0.229,-0.208 0.213,-0.202C0.188,-0.191 0.172,-0.173 0.167,-0.148L0.165,-0.141C0.163,-0.135 0.163,-0.13 0.163,-0.125C0.163,-0.108 0.17,-0.096 0.186,-0.087C0.199,-0.081 0.215,-0.077 0.236,-0.077L0.614,-0.077ZM0.796,-0.148C0.785,-0.103 0.761,-0.067 0.725,-0.04C0.688,-0.013 0.646,0 0.596,0L0.218,0C0.169,0 0.132,-0.013 0.108,-0.039C0.091,-0.057 0.083,-0.079 0.083,-0.106C0.083,-0.117 0.084,-0.129 0.087,-0.141L0.089,-0.148C0.099,-0.19 0.122,-0.224 0.159,-0.25C0.195,-0.277 0.238,-0.29 0.288,-0.29L0.665,-0.29C0.698,-0.29 0.725,-0.283 0.748,-0.271L0.759,-0.319C0.761,-0.324 0.761,-0.33 0.761,-0.335C0.761,-0.349 0.757,-0.361 0.748,-0.373C0.734,-0.39 0.715,-0.398 0.691,-0.398L0.203,-0.398L0.222,-0.476L0.71,-0.476C0.755,-0.476 0.789,-0.46 0.814,-0.429C0.832,-0.407 0.841,-0.382 0.841,-0.354C0.841,-0.343 0.84,-0.331 0.837,-0.319L0.796,-0.148Z" style="fill:white;fill-rule:nonzero;"/>
        </g>
        <g transform="matrix(127.208,0,0,127.208,746.82,280)">
            <path d="M0.186,-0.165C0.185,-0.158 0.184,-0.151 0.184,-0.145C0.184,-0.129 0.189,-0.115 0.198,-0.103C0.212,-0.086 0.231,-0.077 0.255,-0.077L0.336,-0.077L0.319,0L0.238,0C0.193,0 0.157,-0.016 0.132,-0.048C0.114,-0.071 0.104,-0.098 0.104,-0.128C0.104,-0.14 0.106,-0.152 0.108,-0.165L0.22,-0.691L0.298,-0.691L0.186,-0.165Z" style="fill:white;fill-rule:nonzero;"/>
        </g>
    </g>
    <g transform="matrix(1,0,0,1,-52.7933,-39.9879)">
        <g transform="matrix(82,0,0,82,181.666,396.643)">
            <path d="M0.496,-0.396L0.931,-0.396L0.893,-0.215C0.88,-0.156 0.848,-0.105 0.797,-0.063C0.747,-0.021 0.691,0 0.632,0L0.279,0C0.22,0 0.173,-0.021 0.14,-0.063C0.116,-0.093 0.104,-0.128 0.104,-0.167C0.104,-0.183 0.106,-0.199 0.109,-0.215L0.165,-0.476C0.177,-0.535 0.209,-0.586 0.26,-0.628C0.311,-0.67 0.367,-0.691 0.426,-0.691L0.903,-0.691L0.886,-0.614L0.409,-0.614C0.371,-0.614 0.336,-0.6 0.304,-0.573C0.271,-0.546 0.25,-0.514 0.242,-0.476L0.187,-0.215C0.185,-0.204 0.184,-0.194 0.184,-0.185C0.184,-0.16 0.191,-0.137 0.207,-0.118C0.228,-0.091 0.258,-0.077 0.295,-0.077L0.648,-0.077C0.687,-0.077 0.722,-0.091 0.754,-0.118C0.787,-0.145 0.807,-0.177 0.815,-0.215L0.837,-0.318L0.48,-0.318L0.496,-0.396Z" style="fill:white;fill-rule:nonzero;"/>
        </g>
        <g transform="matrix(82,0,0,82,256.339,396.643)">
            <path d="M0.13,-0.313C0.14,-0.358 0.164,-0.396 0.202,-0.428C0.241,-0.46 0.283,-0.476 0.328,-0.476L0.747,-0.476L0.73,-0.398L0.311,-0.398C0.288,-0.398 0.266,-0.39 0.246,-0.374C0.225,-0.357 0.213,-0.337 0.208,-0.313L0.141,0L0.063,0L0.13,-0.313Z" style="fill:white;fill-rule:nonzero;"/>
        </g>
        <g transform="matrix(82,0,0,82,309.711,396.643)">
            <path d="M0.708,-0.476C0.753,-0.476 0.788,-0.46 0.813,-0.428C0.832,-0.405 0.841,-0.379 0.841,-0.349C0.841,-0.337 0.84,-0.325 0.837,-0.313L0.805,-0.163C0.796,-0.118 0.772,-0.08 0.733,-0.048C0.694,-0.016 0.652,0 0.607,0L0.227,0C0.182,0 0.147,-0.016 0.122,-0.048C0.103,-0.071 0.094,-0.098 0.094,-0.128C0.094,-0.139 0.096,-0.151 0.098,-0.163L0.13,-0.313C0.14,-0.358 0.164,-0.396 0.202,-0.428C0.241,-0.46 0.283,-0.476 0.328,-0.476L0.708,-0.476ZM0.759,-0.313C0.761,-0.32 0.762,-0.326 0.762,-0.333C0.762,-0.348 0.757,-0.362 0.748,-0.374C0.734,-0.39 0.715,-0.398 0.692,-0.398L0.311,-0.398C0.287,-0.398 0.265,-0.39 0.246,-0.374C0.225,-0.357 0.212,-0.337 0.207,-0.313L0.175,-0.163C0.174,-0.157 0.173,-0.15 0.173,-0.144C0.173,-0.128 0.178,-0.115 0.188,-0.103C0.201,-0.086 0.219,-0.077 0.243,-0.077L0.624,-0.077C0.647,-0.077 0.669,-0.086 0.69,-0.103C0.71,-0.119 0.722,-0.139 0.728,-0.163L0.759,-0.313Z" style="fill:white;fill-rule:nonzero;"/>
        </g>
        <g transform="matrix(82,0,0,82,378.098,396.643)">
            <path d="M0.794,-0.476L0.872,-0.476L0.805,-0.163C0.796,-0.118 0.772,-0.08 0.733,-0.048C0.694,-0.016 0.652,0 0.607,0L0.227,0C0.182,0 0.147,-0.016 0.122,-0.048C0.103,-0.071 0.094,-0.098 0.094,-0.128C0.094,-0.139 0.096,-0.151 0.098,-0.163L0.165,-0.476L0.242,-0.476L0.176,-0.163C0.174,-0.157 0.174,-0.15 0.174,-0.144C0.174,-0.128 0.179,-0.115 0.188,-0.103C0.201,-0.086 0.22,-0.077 0.243,-0.077L0.624,-0.077C0.648,-0.077 0.67,-0.086 0.69,-0.103C0.71,-0.119 0.723,-0.139 0.728,-0.163L0.794,-0.476Z" style="fill:white;fill-rule:nonzero;"/>
        </g>
        <g transform="matrix(82,0,0,82,446.485,396.643)">
            <path d="M0.707,-0.476C0.752,-0.476 0.788,-0.459 0.813,-0.427C0.831,-0.404 0.84,-0.377 0.84,-0.347C0.84,-0.336 0.839,-0.324 0.836,-0.311L0.805,-0.164C0.796,-0.118 0.771,-0.08 0.732,-0.048C0.693,-0.016 0.651,0 0.606,0L0.26,0C0.215,0 0.179,-0.013 0.149,-0.04L0.098,0.205L0.02,0.205L0.123,-0.28C0.134,-0.334 0.163,-0.38 0.21,-0.418C0.257,-0.456 0.307,-0.476 0.361,-0.476L0.707,-0.476ZM0.759,-0.311C0.76,-0.318 0.761,-0.324 0.761,-0.331C0.761,-0.347 0.756,-0.361 0.747,-0.373C0.733,-0.389 0.715,-0.398 0.69,-0.398L0.344,-0.398C0.311,-0.398 0.281,-0.386 0.253,-0.363C0.225,-0.34 0.208,-0.312 0.201,-0.28L0.183,-0.195C0.181,-0.187 0.18,-0.178 0.18,-0.17C0.18,-0.148 0.186,-0.129 0.2,-0.112C0.218,-0.088 0.243,-0.077 0.276,-0.077L0.622,-0.077C0.646,-0.077 0.669,-0.085 0.689,-0.103C0.71,-0.119 0.723,-0.14 0.728,-0.164L0.759,-0.311Z" style="fill:white;fill-rule:nonzero;"/>
        </g>
    </g>
</svg>
