<?xml version="1.0" encoding="UTF-8" standalone="no"?>
<!DOCTYPE svg PUBLIC "-//W3C//DTD SVG 1.1//EN" "http://www.w3.org/Graphics/SVG/1.1/DTD/svg11.dtd">
<svg width="100%" height="100%" viewBox="0 0 1000 1000" version="1.1" xmlns="http://www.w3.org/2000/svg" xmlns:xlink="http://www.w3.org/1999/xlink" xml:space="preserve" xmlns:serif="http://www.serif.com/" style="fill-rule:evenodd;clip-rule:evenodd;stroke-linejoin:round;stroke-miterlimit:2;">
    <g>
        <path d="M281.42,502.21C281.49,504.42 279.88,506.18 277.3,506.18C275.02,506.18 273.4,504.42 273.4,502.21C273.4,499.93 275.09,498.16 277.44,498.16C279.88,498.16 281.42,499.93 281.42,502.21Z" style="fill:white;fill-rule:nonzero;stroke:white;stroke-width:1px;"/>
        <path d="M56.28,496.06L96.37,496.06L96.37,504.08L56.28,504.08C48.26,504.08 44.25,506.75 44.25,512.1L44.25,536.15C44.25,541.5 48.26,544.17 56.28,544.17L96.37,544.17L96.37,552.19L56.28,552.19C42.92,552.19 36.24,546.84 36.24,536.15L36.24,512.1C36.23,501.41 42.91,496.06 56.28,496.06Z" style="fill:white;fill-rule:nonzero;stroke:white;stroke-width:1px;"/>
        <path d="M148.58,504.08L108.49,504.08L108.49,496.06L148.58,496.06C161.94,496.06 168.62,501.41 168.62,512.1C168.62,517.45 166.95,521.45 163.61,524.13C166.95,526.8 168.62,530.81 168.62,536.16C168.62,546.85 161.94,552.2 148.58,552.2L108.49,552.2L108.49,520.13L148.58,520.13C156.6,520.13 160.61,517.46 160.61,512.11C160.6,506.75 156.6,504.08 148.58,504.08ZM148.58,528.13L116.51,528.13L116.51,544.17L148.58,544.17C156.6,544.17 160.61,541.5 160.61,536.15C160.6,530.81 156.6,528.13 148.58,528.13Z" style="fill:white;fill-rule:nonzero;stroke:white;stroke-width:1px;"/>
        <path d="M240.97,552.19L200.88,552.19L200.88,544.17L240.97,544.17C248.99,544.17 253,541.5 253,536.15L253,512.1C253,506.75 248.99,504.08 240.97,504.08L200.88,504.08L200.88,496.06L240.97,496.06C254.33,496.06 261.01,501.41 261.01,512.1L261.01,536.15C261.02,546.84 254.34,552.19 240.97,552.19Z" style="fill:white;fill-rule:nonzero;stroke:white;stroke-width:1px;"/>
        <rect x="273.14" y="520.16" width="8.02" height="32.02" style="fill:white;fill-rule:nonzero;stroke:white;stroke-width:1px;"/>
        <path d="M313.33,496.06L353.42,496.06L353.42,504.08L313.33,504.08C305.31,504.08 301.3,506.75 301.3,512.1L301.3,536.15C301.3,541.5 305.31,544.17 313.33,544.17L345.4,544.17L345.4,528.13L321.35,528.13L321.35,520.11L353.42,520.11L353.42,552.18L313.33,552.18C299.97,552.18 293.29,546.83 293.29,536.14L293.29,512.1C293.28,501.41 299.96,496.06 313.33,496.06Z" style="fill:white;fill-rule:nonzero;stroke:white;stroke-width:1px;"/>
        <rect x="365.54" y="496.06" width="8.02" height="56.12" style="fill:white;fill-rule:nonzero;stroke:white;stroke-width:1px;"/>
        <path d="M410.21,504.08L384.15,504.08L384.15,496.06L444.28,496.06L444.28,504.08L418.22,504.08L418.22,552.19L410.2,552.19L410.2,504.08L410.21,504.08Z" style="fill:white;fill-rule:nonzero;stroke:white;stroke-width:1px;"/>
        <path d="M491.29,496.06C504.65,496.06 511.33,501.41 511.33,512.1L511.33,552.19L503.31,552.19L503.31,532.15L459.21,532.15L459.21,552.19L451.19,552.19L451.19,512.1C451.19,501.41 457.87,496.06 471.23,496.06L491.29,496.06ZM503.32,512.1C503.32,506.75 499.31,504.08 491.29,504.08L471.25,504.08C463.23,504.08 459.22,506.75 459.22,512.1L459.22,524.13L503.32,524.13L503.32,512.1Z" style="fill:white;fill-rule:nonzero;stroke:white;stroke-width:1px;"/>
        <path d="M543.5,544.17L583.59,544.17L583.59,552.19L543.5,552.19C530.14,552.19 523.46,546.84 523.46,536.15L523.46,496.06L531.48,496.06L531.48,536.15C531.47,541.5 535.48,544.17 543.5,544.17Z" style="fill:white;fill-rule:nonzero;stroke:white;stroke-width:1px;"/>
        <path d="M635.9,496.06L675.99,496.06L675.99,504.08L635.9,504.08C627.88,504.08 623.87,506.75 623.87,512.1L623.87,536.15C623.87,541.5 627.88,544.17 635.9,544.17L667.97,544.17L667.97,528.13L643.92,528.13L643.92,520.11L675.99,520.11L675.99,552.18L635.9,552.18C622.54,552.18 615.86,546.83 615.86,536.14L615.86,512.1C615.85,501.41 622.53,496.06 635.9,496.06Z" style="fill:white;fill-rule:nonzero;stroke:white;stroke-width:1px;"/>
        <path d="M728.2,504.08L688.11,504.08L688.11,496.06L728.2,496.06C741.56,496.06 748.24,501.41 748.24,512.1C748.24,522.79 741.56,528.14 728.2,528.14L725.83,528.14L749.88,552.19L738.58,552.19L714.53,528.14L696.13,528.14L696.13,552.19L688.11,552.19L688.11,520.12L728.2,520.12C736.22,520.12 740.23,517.45 740.23,512.1C740.22,506.75 736.21,504.08 728.2,504.08Z" style="fill:white;fill-rule:nonzero;stroke:white;stroke-width:1px;"/>
        <path d="M779.17,496.06L799.21,496.06C812.57,496.06 819.25,501.41 819.25,512.1L819.25,536.15C819.25,546.84 812.57,552.19 799.21,552.19L779.17,552.19C765.81,552.19 759.13,546.84 759.13,536.15L759.13,512.1C759.12,501.41 765.8,496.06 779.17,496.06ZM799.21,504.08L779.17,504.08C771.15,504.08 767.14,506.75 767.14,512.1L767.14,536.15C767.14,541.5 771.15,544.17 779.17,544.17L799.21,544.17C807.23,544.17 811.24,541.5 811.24,536.15L811.24,512.1C811.24,506.75 807.23,504.08 799.21,504.08Z" style="fill:white;fill-rule:nonzero;stroke:white;stroke-width:1px;"/>
        <path d="M883.49,536.15L883.49,496.06L891.51,496.06L891.51,536.15C891.51,546.84 884.83,552.19 871.47,552.19L851.43,552.19C838.07,552.19 831.39,546.84 831.39,536.15L831.39,496.06L839.41,496.06L839.41,536.15C839.41,541.5 843.42,544.17 851.44,544.17L871.48,544.17C879.48,544.17 883.49,541.5 883.49,536.15Z" style="fill:white;fill-rule:nonzero;stroke:white;stroke-width:1px;"/>
        <path d="M943.72,504.08L903.63,504.08L903.63,496.06L943.72,496.06C957.08,496.06 963.76,501.41 963.76,512.1C963.76,522.79 957.08,528.14 943.72,528.14L911.65,528.14L911.65,552.19L903.63,552.19L903.63,520.12L943.72,520.12C951.74,520.12 955.75,517.45 955.75,512.1C955.75,506.75 951.74,504.08 943.72,504.08Z" style="fill:white;fill-rule:nonzero;stroke:white;stroke-width:1px;"/>
        <path d="M204.8,496.06L204.42,552.19" style="fill:none;fill-rule:nonzero;stroke:white;stroke-width:10.5px;stroke-linejoin:miter;stroke-miterlimit:10;"/>
        <path d="M108.49,520.13L116.51,520.16L116.51,552.18L108.49,552.18L108.49,520.13Z" style="fill:white;fill-rule:nonzero;stroke:white;stroke-width:1px;"/>
        <g>
            <path d="M265.87,490.5C272.25,484.11 282.6,484.11 288.98,490.49" style="fill:none;fill-rule:nonzero;stroke:white;stroke-width:10.5px;stroke-linejoin:miter;stroke-miterlimit:10;"/>
            <path d="M251.99,476.69C266.03,462.64 288.8,462.62 302.85,476.66" style="fill:none;fill-rule:nonzero;stroke:white;stroke-width:10.5px;stroke-linejoin:miter;stroke-miterlimit:10;"/>
            <path d="M239.03,463.74C260.22,442.53 294.6,442.5 315.81,463.69" style="fill:none;fill-rule:nonzero;stroke:white;stroke-width:10.5px;stroke-linejoin:miter;stroke-miterlimit:10;"/>
        </g>
    </g>
</svg>
