<?xml version="1.0" encoding="UTF-8" standalone="no"?>
<!DOCTYPE svg PUBLIC "-//W3C//DTD SVG 1.1//EN" "http://www.w3.org/Graphics/SVG/1.1/DTD/svg11.dtd">
<svg width="100%" height="100%" viewBox="0 0 600 600" version="1.1" xmlns="http://www.w3.org/2000/svg" xmlns:xlink="http://www.w3.org/1999/xlink" xml:space="preserve" xmlns:serif="http://www.serif.com/" style="fill-rule:evenodd;clip-rule:evenodd;stroke-linejoin:round;stroke-miterlimit:1.41421;">
    <g transform="matrix(1.20929,0,0,1.20929,300,300)">
        <g transform="matrix(1,0,0,1,-248.079,-248.079)">
            <path d="M496.158,248.085C496.158,111.064 385.088,0.003 248.082,0.003C111.07,0.003 0,111.063 0,248.085C0,385.087 111.07,496.155 248.083,496.155C385.088,496.155 496.158,385.087 496.158,248.085Z" style="fill:rgb(103,50,127);fill-rule:nonzero;"/>
            <path d="M295.588,361.591C295.588,344.156 272.467,330.025 243.947,330.025C215.426,330.025 192.304,344.157 192.304,361.591C192.304,367.561 195.018,373.143 199.729,377.904C198.802,380.12 198.308,382.442 198.308,384.834C198.308,390.921 201.507,396.547 206.918,401.132C206.825,401.788 206.768,402.448 206.768,403.118C206.768,415.669 223.414,425.843 243.947,425.843C264.479,425.843 281.124,415.669 281.124,403.118C281.124,402.448 281.067,401.788 280.974,401.132C286.386,396.548 289.584,390.921 289.584,384.834C289.584,382.442 289.09,380.12 288.163,377.904C292.874,373.142 295.588,367.56 295.588,361.591Z" style="fill:white;fill-rule:nonzero;"/>
            <path d="M295.932,359.092C295.932,359.092 284.608,369.047 243.674,369.047C202.74,369.047 191.961,359.092 191.961,359.092L191.961,332.076L295.933,332.076L295.933,359.092L295.932,359.092Z" style="fill:rgb(102,51,126);fill-rule:nonzero;"/>
            <g>
                <path d="M345.527,251.167C345.527,195.06 300.048,149.584 243.947,149.584C187.845,149.584 142.365,195.06 142.365,251.167C142.365,288.266 162.26,320.715 191.96,338.442L191.96,350.769C191.96,350.769 202.739,360.724 243.673,360.724C284.607,360.724 295.931,350.769 295.931,350.769L295.931,338.444C325.632,320.717 345.527,288.266 345.527,251.167Z" style="fill:white;fill-rule:nonzero;"/>
                <path d="M248.079,132.313C243.661,132.313 240.079,128.731 240.079,124.313L240.079,70.315C240.079,65.897 243.661,62.315 248.079,62.315C252.497,62.315 256.079,65.897 256.079,70.315L256.079,124.313C256.079,128.731 252.497,132.313 248.079,132.313Z" style="fill:white;fill-rule:nonzero;"/>
                <path d="M429.57,259.807L375.572,259.807C371.154,259.807 367.572,256.225 367.572,251.807C367.572,247.389 371.154,243.807 375.572,243.807L429.57,243.807C433.988,243.807 437.57,247.389 437.57,251.807C437.57,256.225 433.989,259.807 429.57,259.807Z" style="fill:white;fill-rule:nonzero;"/>
                <path d="M120.586,259.807L66.588,259.807C62.17,259.807 58.588,256.225 58.588,251.807C58.588,247.389 62.17,243.807 66.588,243.807L120.586,243.807C125.004,243.807 128.586,247.389 128.586,251.807C128.586,256.225 125.004,259.807 120.586,259.807Z" style="fill:white;fill-rule:nonzero;"/>
                <path d="M338.23,169.655C336.183,169.655 334.135,168.874 332.573,167.312C329.448,164.188 329.448,159.123 332.573,155.999L370.755,117.817C373.879,114.693 378.944,114.693 382.068,117.817C385.193,120.941 385.193,126.006 382.068,129.13L343.886,167.312C342.325,168.874 340.278,169.655 338.23,169.655Z" style="fill:white;fill-rule:nonzero;"/>
                <path d="M157.928,169.655C155.881,169.655 153.833,168.874 152.271,167.312L114.088,129.13C110.963,126.006 110.963,120.941 114.088,117.817C117.212,114.693 122.277,114.693 125.401,117.817L163.584,155.999C166.709,159.123 166.709,164.188 163.584,167.312C162.022,168.874 159.975,169.655 157.928,169.655Z" style="fill:white;fill-rule:nonzero;"/>
            </g>
        </g>
    </g>
</svg>