<?xml version="1.0" encoding="UTF-8" standalone="no"?>
<!DOCTYPE svg PUBLIC "-//W3C//DTD SVG 1.1//EN" "http://www.w3.org/Graphics/SVG/1.1/DTD/svg11.dtd">
<svg width="100%" height="100%" viewBox="0 0 1024 600" version="1.1" xmlns="http://www.w3.org/2000/svg" xmlns:xlink="http://www.w3.org/1999/xlink" xml:space="preserve" xmlns:serif="http://www.serif.com/" style="fill-rule:evenodd;clip-rule:evenodd;stroke-linecap:round;stroke-linejoin:round;stroke-miterlimit:1.5;">
    <g transform="matrix(0.608651,0,0,0.608651,136.377,-27.0862)">
        <path d="M640,91C628.425,86.309 609.461,83.548 597,84C586.866,84.367 579.21,87.451 573,90C561.532,94.707 564.333,98.667 560,100C557.115,100.888 550.581,101.557 547,102C535.375,103.437 538.474,129.444 539,155C539.475,178.041 539,178 539,178C539,178 531.109,182.604 530,187C528.999,190.966 529.127,204.927 532,211C533.901,215.018 545.418,222.998 546,224C548.023,227.484 548.556,232.864 550,237C551.648,241.721 557.267,246.954 561,251C568.157,258.757 576.592,264.93 577,267L577,291C577,291 544.833,296 532,301C520.441,305.503 512.967,312.633 504,323C499.548,328.148 496.429,335.291 495,349C494.316,355.559 492.522,387.946 491,394C490.373,396.493 497,396 497,396C497,396 494.134,427.296 492,441C491.399,444.858 488.235,461.905 488,466C486.88,485.556 487.318,507.197 487,528C486.387,568.064 486.053,605.022 488,618C489.564,628.424 503.667,633.667 512,632C520.333,630.333 526.446,627.412 528,618C528.595,614.397 530.325,606.5 527,600C525.456,596.982 517.249,596.478 517.048,592.812C517.006,592.064 515.75,586.922 516,579C517.131,543.082 521.667,478.167 524,450C525.117,436.51 531,405 531,405L539,407L535,560L531,760L523,914L529,914L529,931C529,931 520.486,938.897 518,944C516.349,947.388 511.548,956.943 509,963C506.838,968.139 507,981 507,981L573,981C573,981 571.167,961.5 569,953C566.966,945.022 561,934 561,934L563,913L565,913L620,636L623,636L626,914L628,914C628,914 626.433,929.333 626,938C625.5,948 626,980 626,980L741,980C741,980 742.667,969.417 736,962.625C724.986,951.404 663,931 663,931L663,914L673,914C673,914 679.874,798.288 684,719C684.422,710.899 684.642,703.178 685,696C685.3,689.98 686.757,664.665 687,659.416C688.071,636.277 688,588 688,588L693,579C693,579 688.199,465.333 686.866,435C686.309,422.33 685,397 685,397C688.01,457.914 693,579 693,579L688,588.314C688,588.314 687.82,621.849 687.795,626L687.509,643.391C687.509,643.391 697.833,643.734 701,642.502C704,641.335 705.71,638.652 707,636C708.5,632.916 709.333,627.333 710,624C710.527,621.365 711.141,618.684 711,616C710.833,612.833 711.181,608.722 709,605C706.198,600.219 705.668,592.201 704,582C701.402,566.11 698.425,502.817 698,493C696.028,447.406 694.332,391.989 694.332,391.989C694.332,391.989 698.341,390.471 699,390C699,390 700.105,362.261 698,348C696.03,334.656 690.823,325.245 684,319C666.93,303.375 634,292 634,292L634,269C634,269 647.633,257.518 654,251C657.605,247.31 662.033,241.981 665,236C668.867,228.204 670,220 670,220C670,220 676.278,221.216 678,220C680.833,218 685.5,213.333 687,208C688.5,202.667 688.833,194.667 687,190C686.154,187.848 684.352,183.006 682,181C679.791,179.116 675,179 675,179C675,179 675.211,160.965 676,152C676.544,145.817 677.558,120.139 671,112C659.69,97.964 650.777,95.368 640,91Z" style="fill:rgb(170,74,0);fill-opacity:0.78;stroke:black;stroke-width:0.25px;"/>
    </g>
    <g transform="matrix(0.608651,0,0,0.608651,136.377,-27.0862)">
        <path d="M547,205C548.667,200.5 549.249,181.456 550,170C550.667,159.833 553.703,153.759 557,147C560.333,140.167 569,129 569,129C569,129 595.33,130.149 608,130C622.167,129.833 655,128 655,128C655,128 659.565,134.536 661,142C662.667,150.667 661.833,168.833 663,180C664.01,189.666 665.333,205.833 667,212C667.679,214.513 672.311,219.511 673,217C674.667,210.928 676.806,184.951 677,175.566C677.333,159.399 679.333,135.667 675,120C671.858,108.641 660.229,100.853 650,95C639.5,88.992 624.833,84.785 612,83.952C599.167,83.119 585.5,84.325 577,87C572.033,88.563 568.667,92 565,96C561.569,99.743 549.833,97.333 546,100C542.167,102.667 538.723,110.833 538,116C536.833,124.333 537.704,140.004 538,152C538.333,165.5 538.5,188.167 540,197C540.593,200.493 545.769,208.323 547,205Z" style="fill:rgb(132,71,43);stroke:black;stroke-width:0.25px;"/>
    </g>
    <g transform="matrix(0.608651,0,0,0.608651,136.377,-27.0862)">
        <path d="M688,588L678,595L543,595L534,590L539,398L492,384C492,384 491.012,337.024 504.012,321.524C506.83,318.164 513.003,311.52 520,307C527.071,302.433 534.962,300.006 537,299.404C551.279,295.187 572,292 572,292C572,292 570.716,294.742 570.848,298C570.903,299.369 571.049,301.195 572,303C573.275,305.42 575.573,307.804 577,309C581.395,312.684 586.833,316.5 591,319C594.454,321.072 598.209,322.64 602,324C604.964,325.064 613.85,329.157 620,328.432C623.663,328.001 627.814,328.139 630,327C634.1,324.864 635.456,323.929 636.667,320C639,312.428 637,293 637,293C637,293 656.056,301.5 664.222,306C671.481,310 681.37,314.897 686,320C689.957,324.361 693,329.462 695,335C697.167,341 698.684,348.881 699,356C699.333,363.5 699,380 699,380L684,386L684,397.308L685.027,396.609L693,579L688,588Z" style="fill:rgb(252,46,46);stroke:black;stroke-width:0.82px;"/>
    </g>
    <g transform="matrix(0.608651,0,0,0.608651,136.377,-27.0862)">
        <path d="M577,291C577,291 576.684,295.36 578,299C579.119,302.095 582.775,306.392 585,308C588.151,310.277 599.5,315.833 604,318C606.566,319.236 609.237,320.309 612,321C615.333,321.833 620.667,323.333 624,323C626.967,322.703 630.333,321.333 632,319C633.667,316.667 633.749,312.39 634,309C634.333,304.5 634,292 634,292L637,293C637,293 638.5,313.167 637,319C635.943,323.109 632.197,327.383 628,328C625.179,328.415 620.502,328.718 616,328C611.458,327.275 607.095,325.524 605,325C601.806,324.201 591.278,319.317 588,317.344C585.414,315.787 578.917,310.667 576,308C573.679,305.878 571.667,302.667 571,300C570.348,297.393 572,292 572,292L577,291Z" style="fill:rgb(67,67,67);stroke:black;stroke-width:1.64px;"/>
    </g>
    <g transform="matrix(0.608651,0,0,0.608651,136.377,-27.0862)">
        <path d="M507,975L507,981L573,981L572,975L507,975Z" style="fill:white;"/>
    </g>
    <g transform="matrix(0.608651,0,0,0.608651,136.377,-27.0862)">
        <path d="M741,980L741,975L626,972L626,980L741,980Z" style="fill:white;"/>
    </g>
    <g transform="matrix(0.608651,0,0,0.608651,136.377,-27.0862)">
        <path d="M699,390L684,397L684,386L699,380" style="fill:rgb(60,60,60);stroke:black;stroke-width:1.64px;"/>
    </g>
    <g transform="matrix(0.608651,0,0,0.608651,136.377,-27.0862)">
        <path d="M608,234C600.667,234 590.5,228.167 586,228C583.645,227.913 579.256,231.414 581,233C584.667,236.333 599.167,248 608,248C616.833,248 630.333,236.333 634,233C635.579,231.564 632.133,227.918 630,228C625.667,228.167 615.333,234 608,234Z" style="fill:white;stroke:black;stroke-width:1.64px;"/>
    </g>
    <g transform="matrix(0.811534,0,0,0.695601,20.125,-45.7804)">
        <ellipse cx="573" cy="197.5" rx="6" ry="10.5"/>
    </g>
    <g transform="matrix(0.811534,0,0,0.695601,62.1219,-45.7804)">
        <ellipse cx="573" cy="197.5" rx="6" ry="10.5"/>
    </g>
    <g transform="matrix(0.608651,0,0,0.608651,136.377,-27.0862)">
        <path d="M560,170.5C560,172 560.454,174.448 562,175C564.333,175.833 570,175.5 574,175.5C578,175.5 583.667,175.583 586,175C588.736,174.316 589.757,168.37 588,166C586.933,164.561 579.015,165.868 574,166C568.243,166.151 564.583,165.466 562,166C559.81,166.453 560,169 560,170.5Z" style="stroke:black;stroke-width:1.64px;"/>
    </g>
    <g transform="matrix(0.608651,0,0,0.608651,175.94,-27.0862)">
        <path d="M560,170.5C560,172 560.454,174.448 562,175C564.333,175.833 570,175.5 574,175.5C578,175.5 583.667,175.583 586,175C588.736,174.316 589.757,168.37 588,166C586.933,164.561 579.015,165.868 574,166C568.243,166.151 564.583,165.466 562,166C559.81,166.453 560,169 560,170.5Z" style="stroke:black;stroke-width:1.64px;"/>
    </g>
    <g transform="matrix(0.608651,0,0,0.608651,136.377,-27.0862)">
        <path d="M492,385L539,398L539,407L491,395" style="fill:rgb(60,60,60);stroke:black;stroke-width:1.64px;"/>
    </g>
    <g transform="matrix(0.608651,0,0,0.608651,136.377,-27.0862)">
        <path d="M673,914L625,914L623,636L620,636L565,914L523,914L532.217,730C532.217,730 532.37,612.5 534,590C534.227,586.864 540.857,594.891 544,595C568,595.833 678,595 678,595L688,588C688,588 686.74,663.497 685,701.206C682.5,755.373 673,914 673,914Z" style="fill:rgb(0,43,189);stroke:black;stroke-width:0.25px;"/>
    </g>
    <g transform="matrix(0.608651,0,0,0.608651,136.377,-27.0862)">
        <path d="M634,269L634,292C634,292 620.963,299 613.854,299C606.521,299 596.142,294 590,292C585.585,290.563 577,287 577,287L577,270C577,270 597.5,275.167 607,275C616.218,274.838 634,269 634,269Z" style="fill:rgb(133,57,0);fill-opacity:0.16;"/>
    </g>
    <g transform="matrix(0.608651,0,0,0.608651,136.377,-27.0862)">
        <path d="M560,935C563.489,937.093 565.831,941.103 567,945C567.778,947.595 569.154,952.714 570,958C571.327,966.295 572,975 572,975L507,975C507,975 510.369,956.239 516,949C519.008,945.133 520.021,937.896 525,934C529.677,930.34 538.298,929.891 542,930C549.065,930.208 555.833,932.5 560,935Z" style="fill:rgb(211,43,43);"/>
    </g>
    <g transform="matrix(0.608651,0,0,0.608651,136.377,-27.0862)">
        <path d="M626,972L741.185,974C741.185,974 738.698,957.993 720,952.493C711.33,949.943 703,945.082 695,942C687.426,939.082 672,934 672,934C672,934 653.667,942.333 646,943C639.154,943.595 626,938 626,938L626,972Z" style="fill:rgb(212,45,45);"/>
    </g>
</svg>
