<?xml version="1.0" encoding="UTF-8" standalone="no"?>
<!DOCTYPE svg PUBLIC "-//W3C//DTD SVG 1.1//EN" "http://www.w3.org/Graphics/SVG/1.1/DTD/svg11.dtd">
<svg width="100%" height="100%" viewBox="0 0 497 497" version="1.1" xmlns="http://www.w3.org/2000/svg" xmlns:xlink="http://www.w3.org/1999/xlink" xml:space="preserve" xmlns:serif="http://www.serif.com/" style="fill-rule:evenodd;clip-rule:evenodd;stroke-linejoin:round;stroke-miterlimit:1.41421;">
    <path d="M496.158,248.085C496.158,111.063 385.09,0.003 248.084,0.003C111.07,0.003 0,111.063 0,248.085C0,385.086 111.07,496.155 248.084,496.155C385.09,496.155 496.158,385.086 496.158,248.085Z" style="fill:rgb(103,51,128);fill-rule:nonzero;"/>
    <g>
        <path d="M73.412,251.075C73.412,254.388 70.726,257.075 67.412,257.075L56.746,257.075C53.432,257.075 50.746,254.388 50.746,251.075L50.746,244.575C50.746,241.262 53.432,238.575 56.746,238.575L67.412,238.575C70.726,238.575 73.412,241.262 73.412,244.575L73.412,251.075Z" style="fill:white;fill-rule:nonzero;"/>
        <path d="M104.412,266.825C104.412,270.138 101.726,272.825 98.412,272.825L87.746,272.825C84.432,272.825 81.746,270.138 81.746,266.825L81.746,229.325C81.746,226.012 84.432,223.325 87.746,223.325L98.412,223.325C101.726,223.325 104.412,226.012 104.412,229.325L104.412,266.825Z" style="fill:white;fill-rule:nonzero;"/>
    </g>
    <g>
        <path d="M135.412,274.579C135.412,277.892 132.726,280.579 129.412,280.579L118.746,280.579C115.432,280.579 112.746,277.892 112.746,274.579L112.746,221.579C112.746,218.266 115.432,215.579 118.746,215.579L129.412,215.579C132.726,215.579 135.412,218.266 135.412,221.579L135.412,274.579Z" style="fill:white;fill-rule:nonzero;"/>
        <path d="M166.412,290.079C166.412,293.392 163.726,296.079 160.412,296.079L149.746,296.079C146.432,296.079 143.746,293.392 143.746,290.079L143.746,206.079C143.746,202.766 146.432,200.079 149.746,200.079L160.412,200.079C163.726,200.079 166.412,202.766 166.412,206.079L166.412,290.079Z" style="fill:white;fill-rule:nonzero;"/>
    </g>
    <g>
        <path d="M197.412,321.079C197.412,324.392 194.726,327.079 191.412,327.079L180.746,327.079C177.432,327.079 174.746,324.392 174.746,321.079L174.746,175.079C174.746,171.766 177.432,169.079 180.746,169.079L191.412,169.079C194.726,169.079 197.412,171.766 197.412,175.079L197.412,321.079Z" style="fill:white;fill-rule:nonzero;"/>
        <path d="M228.412,336.579C228.412,339.892 225.726,342.579 222.412,342.579L211.746,342.579C208.432,342.579 205.746,339.892 205.746,336.579L205.746,159.579C205.746,156.266 208.432,153.579 211.746,153.579L222.412,153.579C225.726,153.579 228.412,156.266 228.412,159.579L228.412,336.579Z" style="fill:white;fill-rule:nonzero;"/>
    </g>
    <path d="M259.412,383.079C259.412,386.392 256.726,389.079 253.412,389.079L242.746,389.079C239.432,389.079 236.746,386.392 236.746,383.079L236.746,113.079C236.746,109.766 239.432,107.079 242.746,107.079L253.412,107.079C256.726,107.079 259.412,109.766 259.412,113.079L259.412,383.079Z" style="fill:white;fill-rule:nonzero;"/>
    <g>
        <path d="M290.412,321.079C290.412,324.392 287.726,327.079 284.412,327.079L273.746,327.079C270.432,327.079 267.746,324.392 267.746,321.079L267.746,175.079C267.746,171.766 270.432,169.079 273.746,169.079L284.412,169.079C287.726,169.079 290.412,171.766 290.412,175.079L290.412,321.079Z" style="fill:white;fill-rule:nonzero;"/>
        <path d="M321.412,290.079C321.412,293.392 318.726,296.079 315.412,296.079L304.746,296.079C301.432,296.079 298.746,293.392 298.746,290.079L298.746,206.079C298.746,202.766 301.432,200.079 304.746,200.079L315.412,200.079C318.726,200.079 321.412,202.766 321.412,206.079L321.412,290.079Z" style="fill:white;fill-rule:nonzero;"/>
    </g>
    <g>
        <path d="M352.412,305.579C352.412,308.892 349.726,311.579 346.412,311.579L335.746,311.579C332.432,311.579 329.746,308.892 329.746,305.579L329.746,190.579C329.746,187.266 332.432,184.579 335.746,184.579L346.412,184.579C349.726,184.579 352.412,187.266 352.412,190.579L352.412,305.579Z" style="fill:white;fill-rule:nonzero;"/>
        <path d="M383.412,274.575C383.412,277.888 380.726,280.575 377.412,280.575L366.746,280.575C363.432,280.575 360.746,277.888 360.746,274.575L360.746,221.575C360.746,218.262 363.432,215.575 366.746,215.575L377.412,215.575C380.726,215.575 383.412,218.262 383.412,221.575L383.412,274.575Z" style="fill:white;fill-rule:nonzero;"/>
    </g>
    <g>
        <path d="M445.412,251.261C445.412,254.575 442.726,257.261 439.412,257.261L428.746,257.261C425.432,257.261 422.746,254.575 422.746,251.261L422.746,244.761C422.746,241.448 425.432,238.761 428.746,238.761L439.412,238.761C442.726,238.761 445.412,241.448 445.412,244.761L445.412,251.261Z" style="fill:white;fill-rule:nonzero;"/>
        <path d="M414.412,259.079C414.412,262.392 411.726,265.079 408.412,265.079L397.746,265.079C394.432,265.079 391.746,262.392 391.746,259.079L391.746,237.079C391.746,233.766 394.432,231.079 397.746,231.079L408.412,231.079C411.726,231.079 414.412,233.766 414.412,237.079L414.412,259.079Z" style="fill:white;fill-rule:nonzero;"/>
    </g>
</svg>