<?xml version="1.0" encoding="UTF-8" standalone="no"?>
<!DOCTYPE svg PUBLIC "-//W3C//DTD SVG 1.1//EN" "http://www.w3.org/Graphics/SVG/1.1/DTD/svg11.dtd">
<svg width="100%" height="100%" viewBox="0 0 600 600" version="1.1" xmlns="http://www.w3.org/2000/svg" xmlns:xlink="http://www.w3.org/1999/xlink" xml:space="preserve" xmlns:serif="http://www.serif.com/" style="fill-rule:evenodd;clip-rule:evenodd;stroke-linecap:round;stroke-linejoin:round;stroke-miterlimit:1.5;">
    <g transform="matrix(2.00117,0,0,1,-600.704,0)">
        <ellipse cx="450.088" cy="300" rx="149.912" ry="300" style="fill:rgb(103,51,128);"/>
    </g>
    <g transform="matrix(1.01248,0,0,1,-1.79928,0)">
        <path d="M179.995,398.581C179.995,393.671 176.058,389.684 171.208,389.684L124.537,389.684C119.687,389.684 115.75,393.671 115.75,398.581L115.75,416.374C115.75,421.284 119.687,425.27 124.537,425.27L171.208,425.27C176.058,425.27 179.995,421.284 179.995,416.374L179.995,398.581Z" style="fill:white;stroke:white;stroke-width:8.94px;"/>
    </g>
    <g transform="matrix(1.01248,0,0,1,307.646,0)">
        <path d="M179.995,398.581C179.995,393.671 176.058,389.684 171.208,389.684L124.537,389.684C119.687,389.684 115.75,393.671 115.75,398.581L115.75,416.374C115.75,421.284 119.687,425.27 124.537,425.27L171.208,425.27C176.058,425.27 179.995,421.284 179.995,416.374L179.995,398.581Z" style="fill:white;stroke:white;stroke-width:8.94px;"/>
    </g>
    <g transform="matrix(1.0677,0,0,1.11823,-36.2504,-43.5679)">
        <path d="M535.441,243.373C535.441,216.867 512.904,195.348 485.144,195.348L145.043,195.348C117.283,195.348 94.746,216.867 94.746,243.373L94.746,339.421C94.746,365.927 117.283,387.446 145.043,387.446L485.144,387.446C512.904,387.446 535.441,365.927 535.441,339.421L535.441,243.373Z" style="fill:white;"/>
    </g>
    <g id="_-Rounded-Rectangle-" serif:id="(Rounded Rectangle)" transform="matrix(1.08019,0,0,1.05777,-39.8821,-21.4788)">
        <path d="M523.633,240.598C523.633,214.895 503.198,194.028 478.029,194.028L151.6,194.028C126.431,194.028 105.996,214.895 105.996,240.598L105.996,333.739C105.996,359.442 126.431,380.309 151.6,380.309L478.029,380.309C503.198,380.309 523.633,359.442 523.633,333.739L523.633,240.598Z" style="fill:rgb(103,51,128);"/>
    </g>
    <g transform="matrix(5.93642,0,0,0.965121,-668.275,11.6716)">
        <path d="M136.363,228.634C136.363,227.487 136.212,226.555 136.025,226.555L135.35,226.555C135.163,226.555 135.012,227.487 135.012,228.634L135.012,333.559C135.012,334.706 135.163,335.637 135.35,335.637L136.025,335.637C136.212,335.637 136.363,334.706 136.363,333.559L136.363,228.634Z" style="fill:white;stroke:white;stroke-width:2.12px;"/>
    </g>
    <g transform="matrix(5.93642,0,0,0.965121,-628.005,11.6716)">
        <path d="M136.363,228.634C136.363,227.487 136.212,226.555 136.025,226.555L135.35,226.555C135.163,226.555 135.012,227.487 135.012,228.634L135.012,333.559C135.012,334.706 135.163,335.637 135.35,335.637L136.025,335.637C136.212,335.637 136.363,334.706 136.363,333.559L136.363,228.634Z" style="fill:white;stroke:white;stroke-width:2.12px;"/>
    </g>
    <g transform="matrix(5.93642,0,0,0.965121,-590.044,11.6716)">
        <path d="M136.363,228.634C136.363,227.487 136.212,226.555 136.025,226.555L135.35,226.555C135.163,226.555 135.012,227.487 135.012,228.634L135.012,333.559C135.012,334.706 135.163,335.637 135.35,335.637L136.025,335.637C136.212,335.637 136.363,334.706 136.363,333.559L136.363,228.634Z" style="fill:white;stroke:white;stroke-width:2.12px;"/>
    </g>
    <g transform="matrix(1.26479,0,0,1.46516,-132.887,-138.667)">
        <ellipse cx="444.426" cy="287.77" rx="45.462" ry="39.245" style="fill:rgb(103,51,128);stroke:white;stroke-width:6.58px;"/>
    </g>
    <g transform="matrix(0.728988,0,0,0.714152,111.742,86.214)">
        <path d="M465.176,282.28C464.789,278.692 464.015,271.515 461.963,266.891C459.911,262.267 456.291,257.797 452.865,254.536C449.595,251.425 445.345,249.124 441.403,247.326C437.552,245.569 431.995,244.355 429.217,243.749" style="fill:none;stroke:white;stroke-width:12.47px;"/>
    </g>
</svg>