<?xml version="1.0" encoding="UTF-8" standalone="no"?>
<!DOCTYPE svg PUBLIC "-//W3C//DTD SVG 1.1//EN" "http://www.w3.org/Graphics/SVG/1.1/DTD/svg11.dtd">
<svg width="100%" height="100%" viewBox="0 0 350 350" version="1.1" xmlns="http://www.w3.org/2000/svg" xmlns:xlink="http://www.w3.org/1999/xlink" xml:space="preserve" xmlns:serif="http://www.serif.com/" style="fill-rule:evenodd;clip-rule:evenodd;stroke-linejoin:round;stroke-miterlimit:2;">
    <g transform="matrix(1.27262,0,0,1.27262,24.9987,25)">
        <g>
            <g>
                <path d="M71.493,100.192C72.297,100.996 73.351,101.398 74.404,101.398C75.457,101.398 76.511,100.996 77.315,100.192L112.251,65.256C113.859,63.648 113.859,61.042 112.251,59.434L86.048,33.229L80.226,27.407L54.024,1.206C52.416,-0.402 49.81,-0.402 48.202,1.206L36.557,12.851L36.556,12.85L30.734,18.672L30.735,18.673L13.266,36.143C11.658,37.751 11.658,40.357 13.266,41.965L71.493,100.192ZM74.404,91.459L51.112,68.168L65.669,53.61L88.961,76.902L74.404,91.459ZM80.227,39.052L103.519,62.344L94.784,71.079L71.492,47.787L80.227,39.052ZM51.114,9.939L74.404,33.23L65.67,41.965L42.38,18.674L51.114,9.939ZM36.557,24.496L59.847,47.788L45.29,62.346L21.999,39.054L36.557,24.496Z" style="fill:white;fill-rule:nonzero;"/>
                <path d="M234.528,181.71L176.301,123.483C174.693,121.875 172.087,121.875 170.479,123.483L135.542,158.42C134.77,159.192 134.336,160.239 134.336,161.331C134.336,162.423 134.77,163.47 135.542,164.242L193.771,222.469C194.543,223.241 195.59,223.675 196.682,223.675C197.774,223.675 198.821,223.241 199.593,222.469L217.061,205L222.883,199.178L222.882,199.177L234.527,187.532C236.137,185.924 236.137,183.318 234.528,181.71ZM173.39,132.216L196.682,155.508L187.948,164.242L164.656,140.95L173.39,132.216ZM144.276,161.331L158.834,146.772L182.126,170.064L167.568,184.622L144.276,161.331ZM196.683,213.736L173.39,190.444L187.948,175.887L211.24,199.179L196.683,213.736ZM217.062,193.355L193.771,170.064L202.505,161.33L225.795,184.62L217.062,193.355Z" style="fill:white;fill-rule:nonzero;"/>
                <path d="M138.455,138.038L179.216,97.277C190.452,86.045 190.452,67.76 179.214,56.522C173.778,51.086 166.545,48.09 158.844,48.086L158.828,48.086C151.128,48.086 143.895,51.08 138.458,56.518L97.696,97.282L138.455,138.038ZM144.282,62.34C148.164,58.458 153.329,56.321 158.829,56.321C164.155,56.396 169.506,58.458 173.392,62.344C181.417,70.372 181.419,83.431 173.394,91.455L138.455,126.394L109.34,97.281L144.282,62.34Z" style="fill:white;fill-rule:nonzero;"/>
                <path d="M94.783,100.192L68.581,126.394L86.049,143.862L54.004,175.91L59.826,181.732L91.872,149.685L109.34,167.153L135.542,140.951L94.783,100.192ZM109.341,155.509L80.226,126.394L94.783,111.837L123.898,140.952L109.341,155.509Z" style="fill:white;fill-rule:nonzero;"/>
                <path d="M28.114,145.861C25.84,145.861 23.997,147.705 23.997,149.978C23.997,184.032 51.702,211.738 85.757,211.738C88.031,211.738 89.874,209.894 89.874,207.621C89.874,205.348 88.03,203.504 85.757,203.504C56.242,203.504 32.232,179.494 32.232,149.979C32.232,147.704 30.388,145.861 28.114,145.861Z" style="fill:white;fill-rule:nonzero;"/>
                <path d="M86.464,227.501C43.329,227.501 8.235,192.408 8.235,149.272C8.235,146.998 6.391,145.155 4.118,145.155C1.845,145.155 0.001,146.999 0.001,149.272C0.001,196.949 38.788,235.735 86.464,235.735C88.738,235.735 90.581,233.891 90.581,231.618C90.582,229.345 88.738,227.501 86.464,227.501Z" style="fill:white;fill-rule:nonzero;"/>
            </g>
        </g>
    </g>
</svg>
