<?xml version="1.0" encoding="UTF-8" standalone="no"?>
<!DOCTYPE svg PUBLIC "-//W3C//DTD SVG 1.1//EN" "http://www.w3.org/Graphics/SVG/1.1/DTD/svg11.dtd">
<svg width="100%" height="100%" viewBox="0 0 600 600" version="1.1" xmlns="http://www.w3.org/2000/svg" xmlns:xlink="http://www.w3.org/1999/xlink" xml:space="preserve" xmlns:serif="http://www.serif.com/" style="fill-rule:evenodd;clip-rule:evenodd;stroke-linejoin:round;stroke-miterlimit:1.41421;">
    <g transform="matrix(1.20929,0,0,1.20929,300,300)">
        <g transform="matrix(1,0,0,1,-248.079,-248.079)">
            <path d="M496.158,248.085C496.158,111.063 385.09,0.003 248.084,0.003C111.07,0.003 0,111.063 0,248.085C0,385.086 111.07,496.155 248.084,496.155C385.09,496.155 496.158,385.086 496.158,248.085Z" style="fill:rgb(103,51,128);fill-rule:nonzero;"/>
            <g transform="matrix(1,0,0,1,248.079,236.513)">
                <g transform="matrix(1,0,0,1,-180.559,-180.559)">
                    <path id="_x32_37._Locked" d="M274.765,141.3L274.765,94.205C274.765,42.172 232.583,0 180.559,0C128.527,0 86.354,42.172 86.354,94.205L86.354,141.3C69.014,141.3 54.954,155.36 54.954,172.7L54.954,329.716C54.954,347.06 69.014,361.118 86.354,361.118L274.765,361.118C292.106,361.118 306.163,347.059 306.163,329.716L306.163,172.7C306.164,155.36 292.106,141.3 274.765,141.3ZM117.756,94.205C117.756,59.515 145.876,31.402 180.559,31.402C215.244,31.402 243.364,59.514 243.364,94.205L243.364,141.3L117.756,141.3L117.756,94.205ZM274.765,329.715L86.354,329.715L86.354,172.708L274.765,172.708L274.765,329.715ZM164.858,262.558L164.858,282.612C164.858,291.276 171.893,298.313 180.559,298.313C189.223,298.313 196.26,291.276 196.26,282.612L196.26,262.558C205.597,257.117 211.961,247.102 211.961,235.512C211.961,218.164 197.899,204.102 180.559,204.102C163.219,204.102 149.159,218.164 149.159,235.512C149.159,247.102 155.517,257.117 164.858,262.558Z" style="fill:white;fill-rule:nonzero;"/>
                </g>
            </g>
        </g>
    </g>
</svg>