<?xml version="1.0" encoding="UTF-8" standalone="no"?>
<!DOCTYPE svg PUBLIC "-//W3C//DTD SVG 1.1//EN" "http://www.w3.org/Graphics/SVG/1.1/DTD/svg11.dtd">
<svg width="100%" height="100%" viewBox="0 0 1024 600" version="1.1" xmlns="http://www.w3.org/2000/svg" xmlns:xlink="http://www.w3.org/1999/xlink" xml:space="preserve" xmlns:serif="http://www.serif.com/" style="fill-rule:evenodd;clip-rule:evenodd;stroke-linecap:round;stroke-linejoin:round;stroke-miterlimit:1.5;">
    <g transform="matrix(1,0,0,1,-117.328,-378.935)">
        <path d="M993,780L1019,780L1030,846L990,846L993,780Z" style="fill:none;stroke:rgb(123,123,123);stroke-width:1.5px;"/>
    </g>
    <g transform="matrix(1,0,0,1,-117.328,-379.935)">
        <path d="M1003,797L998.5,797" style="fill:none;stroke:rgb(123,123,123);stroke-width:1.5px;"/>
    </g>
    <g transform="matrix(1,0,0,1,-117.328,-379.935)">
        <path d="M998.5,804L1003,804" style="fill:none;stroke:rgb(123,123,123);stroke-width:1.5px;"/>
    </g>
    <g transform="matrix(1,0,0,1,-117.328,-379.935)">
        <path d="M998,804L998,797" style="fill:none;stroke:rgb(123,123,123);stroke-width:1.5px;"/>
    </g>
    <g transform="matrix(1,0,0,1,-117.328,-378.935)">
        <path d="M1015,790L1003,790" style="fill:none;stroke:rgb(123,123,123);stroke-width:1.5px;"/>
    </g>
    <g transform="matrix(1,0,0,1,-117.328,-378.935)">
        <path d="M1015,810L1003,810" style="fill:none;stroke:rgb(123,123,123);stroke-width:1.5px;"/>
    </g>
    <g transform="matrix(1,0,0,1,-117.328,-378.935)">
        <path d="M1035,850L1075,798L1075,578L1042,578L997,626L986,850L1035,850Z" style="fill:none;stroke:rgb(123,123,123);stroke-width:1.5px;"/>
    </g>
    <g transform="matrix(1,0,0,1,-117.328,-378.935)">
        <path d="M997,626L1075,578L1035,848L997,626Z" style="fill:none;stroke:rgb(123,123,123);stroke-width:1.5px;"/>
    </g>
    <g transform="matrix(1,0,0,1,-117.328,-378.935)">
        <path d="M1003,796L1003,790" style="fill:none;stroke:rgb(123,123,123);stroke-width:1.5px;"/>
    </g>
    <g transform="matrix(1,0,0,1,-117.328,-378.935)">
        <path d="M1015,790L1015,810" style="fill:none;stroke:rgb(123,123,123);stroke-width:1.5px;"/>
    </g>
    <g transform="matrix(1,0,0,1,-117.328,-378.935)">
        <path d="M1003,810L1003,803" style="fill:none;stroke:rgb(123,123,123);stroke-width:1.5px;"/>
    </g>
    <g transform="matrix(1.2,0,0,1.17647,-317.928,-489.346)">
        <rect x="1003" y="790" width="10" height="17" style="fill:rgb(123,123,123);fill-opacity:0;stroke:rgb(123,123,123);stroke-width:1.26px;"/>
    </g>
    <g transform="matrix(0.947368,0,0,1,-70.1701,-378.935)">
        <path d="M915,651.5C915,649.016 912.872,647 910.25,647L900.75,647C898.128,647 896,649.016 896,651.5L896,660.5C896,662.984 898.128,665 900.75,665L910.25,665C912.872,665 915,662.984 915,660.5L915,651.5Z" style="fill:rgb(123,123,123);stroke:rgb(123,123,123);stroke-width:5.13px;"/>
    </g>
    <g transform="matrix(1,0,0,1,-117.328,-378.935)">
        <path d="M698,834C688.694,844 670.083,864 665,871C663.905,872.508 665.637,875.966 667.5,876C713.5,876.833 893.417,876.5 941,876C945.123,875.957 949.816,875.619 953,873C963.333,864.5 989.778,838.167 1003,825" style="fill:none;stroke:rgb(196,196,196);stroke-width:2.5px;"/>
    </g>
    <g transform="matrix(0.818182,0,0,0.705882,-1.32795,-135.758)">
        <rect x="627" y="820" width="22" height="17" style="fill:rgb(123,123,123);fill-opacity:0.57;stroke:rgb(123,123,123);stroke-width:1.96px;stroke-linecap:butt;"/>
    </g>
    <g transform="matrix(0.818182,0,0,0.705882,55.672,-135.758)">
        <rect x="627" y="820" width="22" height="17" style="fill:rgb(123,123,123);fill-opacity:0;stroke:rgb(123,123,123);stroke-width:1.96px;stroke-linecap:butt;"/>
    </g>
    <g transform="matrix(1,0,0,1,-117.328,-379.935)">
        <path d="M695,814L695,817" style="fill:none;stroke:rgb(123,123,123);stroke-width:1.5px;"/>
    </g>
    <g transform="matrix(0.75,0,0,1,55.422,-378.935)">
        <path d="M687,808.5L691,808.5" style="fill:none;stroke:rgb(123,123,123);stroke-width:1.7px;"/>
    </g>
    <g transform="matrix(0.75,0,0,1,66.422,-378.935)">
        <path d="M687,808.5L691,808.5" style="fill:none;stroke:rgb(123,123,123);stroke-width:1.7px;"/>
    </g>
    <g transform="matrix(1,0,0,1,-117.328,-378.935)">
        <path d="M692,812L690,814" style="fill:none;stroke:rgb(123,123,123);stroke-width:1.5px;"/>
    </g>
    <g transform="matrix(1,0,0,1,-117.328,-378.935)">
        <path d="M698,812L700,814" style="fill:none;stroke:rgb(123,123,123);stroke-width:1.5px;"/>
    </g>
    <g transform="matrix(-1,0,0,-1,1272.67,1238.57)">
        <path d="M695,814L695,817" style="fill:none;stroke:rgb(123,123,123);stroke-width:1.5px;"/>
    </g>
    <g transform="matrix(-1,0,0,-1,1272.67,1237.57)">
        <path d="M692,812L690,814" style="fill:none;stroke:rgb(123,123,123);stroke-width:1.5px;"/>
    </g>
    <g transform="matrix(-1,0,0,-1,1272.67,1237.57)">
        <path d="M698,812L700,814" style="fill:none;stroke:rgb(123,123,123);stroke-width:1.5px;"/>
    </g>
    <g transform="matrix(1,0,0,1,-174.328,-379.935)">
        <path d="M695,814L695,817" style="fill:none;stroke:rgb(196,196,196);stroke-width:1.5px;"/>
    </g>
    <g transform="matrix(0.75,0,0,1,-1.57795,-378.935)">
        <path d="M687,808.5L691,808.5" style="fill:none;stroke:rgb(196,196,196);stroke-width:1.7px;"/>
    </g>
    <g transform="matrix(0.75,0,0,1,9.42205,-378.935)">
        <path d="M687,808.5L691,808.5" style="fill:none;stroke:rgb(196,196,196);stroke-width:1.7px;"/>
    </g>
    <g transform="matrix(1,0,0,1,-174.328,-378.935)">
        <path d="M692,812L690,814" style="fill:none;stroke:rgb(196,196,196);stroke-width:1.5px;"/>
    </g>
    <g transform="matrix(1,0,0,1,-174.328,-378.935)">
        <path d="M698,812L700,814" style="fill:none;stroke:rgb(196,196,196);stroke-width:1.5px;"/>
    </g>
    <g transform="matrix(-1,0,0,-1,1215.67,1238.57)">
        <path d="M695,814L695,817" style="fill:none;stroke:rgb(196,196,196);stroke-width:1.5px;"/>
    </g>
    <g transform="matrix(-1,0,0,-1,1215.67,1237.57)">
        <path d="M692,812L690,814" style="fill:none;stroke:rgb(196,196,196);stroke-width:1.5px;"/>
    </g>
    <g transform="matrix(-1,0,0,-1,1215.67,1237.57)">
        <path d="M698,812L700,814" style="fill:none;stroke:rgb(196,196,196);stroke-width:1.5px;"/>
    </g>
    <g transform="matrix(1,0,0,1,-117.328,-378.935)">
        <path d="M667.5,850L667.5,796L609,796L589,850L667.5,850Z" style="fill:rgb(123,123,123);fill-opacity:0.57;stroke:rgb(123,123,123);stroke-width:1px;"/>
    </g>
    <g transform="matrix(1,0,0,1,-117.328,-378.935)">
        <path d="M779,751L672,751" style="fill:none;stroke:rgb(123,123,123);stroke-width:1px;"/>
    </g>
    <g transform="matrix(1,0,0,1,-117.328,-378.935)">
        <path d="M609,796L672,751" style="fill:none;stroke:rgb(123,123,123);stroke-width:1px;"/>
    </g>
    <g transform="matrix(0.976378,0,0,1,-102.281,-378.935)">
        <path d="M510,880L591,880L637,833" style="fill:none;stroke:rgb(123,123,123);stroke-width:9.11px;"/>
    </g>
    <g transform="matrix(1,0,0,1,-117.328,-378.935)">
        <path d="M688,834C679.278,843.444 661.833,862.333 657,870C655.187,872.876 657.25,877.667 659,880C660.75,882.333 664.369,883.956 667.5,884C715,884.667 896.583,884.167 944,884C946.687,883.991 949.466,883.894 952,883C954.833,882 958.476,880.326 961,878C969.5,870.167 991.833,847.389 1003,836" style="fill:none;stroke:rgb(196,196,196);stroke-width:2.5px;"/>
    </g>
    <g transform="matrix(1,0,0,1,-117.328,-378.935)">
        <path d="M727,796L746,850L589,850L609,796L727,796Z" style="fill:none;stroke:rgb(123,123,123);stroke-width:1px;"/>
    </g>
    <g transform="matrix(1,0,0,1,-117.328,-378.935)">
        <path d="M779,751L727,796" style="fill:none;stroke:rgb(123,123,123);stroke-width:1px;"/>
    </g>
    <g transform="matrix(1,0,0,1,-117.328,-378.935)">
        <path d="M779,751L798,798" style="fill:none;stroke:rgb(123,123,123);stroke-width:1px;"/>
    </g>
    <g transform="matrix(1,0,0,1,-117.328,-378.935)">
        <path d="M798,798L746,850" style="fill:none;stroke:rgb(123,123,123);stroke-width:1px;"/>
    </g>
    <g transform="matrix(1.11486,-1.12919,1.05921,1.04576,-827.356,-27.0484)">
        <ellipse cx="338.5" cy="622" rx="48.5" ry="38" style="fill:rgb(235,235,235);fill-opacity:0;stroke:rgb(123,123,123);stroke-width:0.65px;stroke-linecap:butt;"/>
    </g>
    <g transform="matrix(1,0,0,1,-117.328,-378.935)">
        <path d="M270,867C269.601,867.356 269.316,867.69 269,868C268.047,868.935 267.279,869.641 266,870C264.333,870.468 262.66,869.33 262,869" style="fill:none;stroke:rgb(122,122,122);stroke-width:1px;stroke-linecap:butt;"/>
    </g>
    <g transform="matrix(1,0,0,1,-117.328,-378.935)">
        <path d="M297,812L297,835" style="fill:none;stroke:rgb(122,122,122);stroke-width:1px;stroke-linecap:butt;"/>
    </g>
    <g transform="matrix(1,0,0,1,-117.328,-378.935)">
        <path d="M270,867L297,835" style="fill:none;stroke:rgb(122,122,122);stroke-width:1px;"/>
    </g>
    <g transform="matrix(1,0,0,1,-117.328,-378.935)">
        <path d="M433.5,828L323.5,816" style="fill:none;stroke:rgb(122,122,122);stroke-width:1px;stroke-linecap:butt;"/>
    </g>
    <g transform="matrix(1,0,0,1,-117.328,-378.935)">
        <path d="M302,808L223,807L290,817L251,878L249,895L258,895L263,878L325,823L456,834L452,831L329.5,811" style="fill:none;stroke:rgb(122,122,122);stroke-width:1px;"/>
    </g>
    <g transform="matrix(1,0,0,1.00781,-117.328,-384.692)">
        <path d="M304,664.566L304,801" style="fill:none;stroke:rgb(123,123,123);stroke-width:0.65px;stroke-linecap:butt;"/>
    </g>
    <g transform="matrix(1,0,0,1,-117.328,-378.935)">
        <path d="M305,663L305,801.5" style="fill:none;stroke:rgb(161,161,161);stroke-width:0.35px;stroke-linecap:butt;"/>
    </g>
    <g transform="matrix(1,0,0,1,-117.328,-378.935)">
        <path d="M323,635L323,801.5" style="fill:none;stroke:rgb(161,161,161);stroke-width:0.35px;stroke-linecap:butt;"/>
    </g>
    <g transform="matrix(1,0,0,1.02817,-117.328,-400.498)">
        <path d="M324,636.63L324,801" style="fill:none;stroke:rgb(122,122,122);stroke-width:0.64px;stroke-linecap:butt;"/>
    </g>
    <g transform="matrix(1,0,0,0.75,-117.328,-178.685)">
        <path d="M326,801L326,811" style="fill:none;stroke:rgb(123,123,123);stroke-width:1.13px;"/>
    </g>
    <g transform="matrix(1,0,0,0.7,-117.328,-138.635)">
        <path d="M302,801L302,811" style="fill:none;stroke:rgb(123,123,123);stroke-width:1.16px;"/>
    </g>
    <g transform="matrix(1,0,0,1,-117.328,-378.935)">
        <path d="M296,677C305.5,661.778 324.5,631.333 332,622C333.891,619.647 338.5,620.167 341,621C343.5,621.833 346.333,624.5 347,627C347.667,629.5 346.486,633.31 345,636C341.5,642.333 331.167,657.444 326,665" style="fill:none;stroke:rgb(123,123,123);stroke-width:1px;stroke-linecap:butt;"/>
    </g>
    <g transform="matrix(1,0,0,1,-117.328,-378.935)">
        <path d="M326.179,685L326,801C318.122,803.817 310.128,804.053 302,801L302,687.775C310.06,688.765 318.12,687.253 326.179,685Z" style="fill:none;stroke:rgb(124,124,124);stroke-width:1px;"/>
    </g>
    <g transform="matrix(-1.23434,1.35971,-1.04744,-0.950868,1208.5,280.924)">
        <ellipse cx="350" cy="565" rx="90" ry="85" style="fill:rgb(235,235,235);fill-opacity:0;stroke:rgb(123,123,123);stroke-width:0.61px;"/>
    </g>
    <g transform="matrix(0.982558,0,0,1,-111.642,-378.935)">
        <path d="M326,840C326,840 361.169,867.584 373.098,876.939C375.624,878.921 378.761,880 381.993,880C404.804,880 498,880 498,880" style="fill:none;stroke:rgb(123,123,123);stroke-width:9.08px;"/>
    </g>
    <g transform="matrix(1,0,0,1,-117.328,-378.935)">
        <path d="M500,463L500,906" style="fill:none;stroke:rgb(123,123,123);stroke-width:1px;stroke-linecap:butt;"/>
    </g>
    <g transform="matrix(1,0,0,1,-117.328,-378.935)">
        <path d="M508,463L508,906" style="fill:none;stroke:rgb(123,123,123);stroke-width:1px;stroke-linecap:butt;"/>
    </g>
    <g transform="matrix(1,0,0,1,-117.328,-378.935)">
        <path d="M281.5,829.5L225.5,816L221,821L214.5,821L214.5,815L223,807" style="fill:none;stroke:rgb(123,123,123);stroke-width:1px;stroke-linecap:butt;"/>
    </g>
    <g transform="matrix(1,0,0,1,-117.328,-378.935)">
        <path d="M326.179,684L326.179,630" style="fill:none;stroke:rgb(123,123,123);stroke-width:1px;stroke-linecap:butt;"/>
    </g>
    <g transform="matrix(1,0,0,1,-117.328,-378.935)">
        <path d="M302,668L302,687.775L302,668Z" style="fill:none;stroke:rgb(123,123,123);stroke-width:1px;stroke-linecap:butt;"/>
    </g>
    <g transform="matrix(1,0,0,1,-117.328,-378.935)">
        <path d="M296,677C295.371,678.358 294.113,681.075 295.5,683C296.905,684.95 300.302,684.983 302,685" style="fill:none;stroke:rgb(123,123,123);stroke-width:1px;stroke-linecap:butt;"/>
    </g>
    <g transform="matrix(1,0,0,1,-117.328,-378.935)">
        <path d="M456,834L466,852" style="fill:none;stroke:rgb(122,122,122);stroke-width:1px;stroke-linecap:butt;"/>
    </g>
    <g transform="matrix(1,0,0,1,-117.328,-378.935)">
        <path d="M454.5,852L448.5,843.5L326,839" style="fill:none;stroke:rgb(122,122,122);stroke-width:1px;stroke-linecap:butt;"/>
    </g>
    <g transform="matrix(1,0,0,1,-117.328,-378.935)">
        <path d="M326,839L267,885" style="fill:none;stroke:rgb(122,122,122);stroke-width:1px;"/>
    </g>
    <g transform="matrix(1,0,0,1,-117.328,-378.935)">
        <path d="M266,892L267,885" style="fill:none;stroke:rgb(122,122,122);stroke-width:1px;"/>
    </g>
    <g transform="matrix(1,0,0,1,-117.328,-378.935)">
        <path d="M266,892L258,895" style="fill:none;stroke:rgb(122,122,122);stroke-width:1px;"/>
    </g>
    <g transform="matrix(1,0,0,1,-117.328,-378.935)">
        <path d="M263,878L324.5,816" style="fill:none;stroke:rgb(122,122,122);stroke-width:1px;"/>
    </g>
    <g transform="matrix(1,0,0,1,-117.328,-378.935)">
        <path d="M466,852L454.5,852" style="fill:none;stroke:rgb(122,122,122);stroke-width:1px;"/>
    </g>
    <g transform="matrix(1,0,0,1.42857,-117.328,-729.077)">
        <ellipse cx="313.5" cy="813.5" rx="16.5" ry="3.5" style="fill:rgb(235,235,235);fill-opacity:0;stroke:rgb(122,122,122);stroke-width:0.69px;"/>
    </g>
    <g transform="matrix(1,0,0,1,-117.328,-378.935)">
        <path d="M297,835C297.274,836.231 297.983,836.584 299,837C299.937,837.384 301.137,837.871 302.5,838" style="fill:none;stroke:rgb(122,122,122);stroke-width:1px;stroke-linecap:butt;"/>
    </g>
    <g transform="matrix(1,0,0,1,-117.328,-378.935)">
        <rect x="875" y="614" width="60" height="83" style="fill:rgb(123,123,123);fill-opacity:0;stroke:rgb(123,123,123);stroke-width:2.5px;"/>
    </g>
    <g transform="matrix(1.03226,0,0,1,-147.038,-378.935)">
        <rect x="890" y="629" width="31" height="55" style="fill:rgb(123,123,123);fill-opacity:0;stroke:rgb(123,123,123);stroke-width:2.46px;"/>
    </g>
    <g transform="matrix(1,0,0,0.98942,-117.328,-372)">
        <path d="M752,750C779.354,718.711 834.061,656.134 850,655.5C859.278,655.131 879.211,655.462 894,655.5" style="fill:none;stroke:rgb(123,123,123);stroke-width:5.03px;"/>
    </g>
</svg>
